<svg xmlns="http://www.w3.org/2000/svg" width="512" height="512" viewBox="0 0 512 512" role="img" aria-label="GetWrite">
<title>GetWrite</title>
<rect width="512" height="512" rx="112" fill="#F0EDE6"/>
<rect x="132" y="170" width="18" height="172" fill="#D44040"/>
<path transform="translate(176 346) scale(0.216 -0.216)" d="M489 97H479Q468 50 425.5 19.0Q383 -12 306 -12Q249 -12 202.0 9.5Q155 31 122.0 75.0Q89 119 70.5 187.5Q52 256 52 349Q52 536 122.0 623.0Q192 710 319 710Q411 710 466.0 670.5Q521 631 552 562L486 522Q466 577 425.0 608.0Q384 639 319 639Q232 639 185.0 581.5Q138 524 138 427V271Q138 174 185.0 116.5Q232 59 319 59Q353 59 383.5 69.0Q414 79 436.5 98.5Q459 118 472.0 146.5Q485 175 485 211V287H347V357H563V0H489Z" fill="#8A8880"/>
<path transform="translate(296 346) scale(0.216 -0.216)" d="M167 0 27 698H168L234 312L252 157H268L286 308L366 698H523L604 308L622 157H638L656 312L721 698H857L711 0H549L467 402L449 541H433L415 402L333 0Z" fill="#1A1916"/>
</svg>